HIERARCHY
ROOT Hips
{
	OFFSET 0.000000 88.474243 0.000000
	CHANNELS 6 Xposition Yposition Zposition Zrotation Yrotation Xrotation 
	JOINT Hips_Spine
	{
		OFFSET 0.000000 0.000000 0.000000
		CHANNELS 3 Zrotation Yrotation Xrotation
		JOINT Spine
		{
			OFFSET 0.005100 8.711998 -0.691000
			CHANNELS 3 Zrotation Yrotation Xrotation
			JOINT Spine1
			{
				OFFSET -0.009200 8.660301 -1.275000
				CHANNELS 3 Zrotation Yrotation Xrotation
				JOINT Spine2
				{
					OFFSET 0.006300 9.852501 -1.857000
					CHANNELS 3 Zrotation Yrotation Xrotation
					JOINT Spine2_Neck
					{
						OFFSET 0.000000 0.000000 0.000000
						CHANNELS 3 Zrotation Yrotation Xrotation
						JOINT Neck
						{
							OFFSET 0.016300 11.420799 -0.263300
							CHANNELS 3 Zrotation Yrotation Xrotation
							End Site #name: Head
							{
								OFFSET -0.019200 9.262405 2.362500
							}
						}
					}
					JOINT Spine2_LeftShoulder
					{
						OFFSET 0.000000 0.000000 0.000000
						CHANNELS 3 Zrotation Yrotation Xrotation
						JOINT LeftShoulder
						{
							OFFSET 5.616900 6.732201 -0.345700
							CHANNELS 3 Zrotation Yrotation Xrotation
							JOINT LeftArm
							{
								OFFSET 10.664888 -0.183372 -2.440700
								CHANNELS 3 Zrotation Yrotation Xrotation
								JOINT LeftForeArm
								{
									OFFSET 27.459126 0.000000 0.000000
									CHANNELS 3 Zrotation Yrotation Xrotation
									End Site #name: LeftHand
									{
										OFFSET 21.306858 0.000000 0.000000
									}
								}
							}
						}
					}
					JOINT Spine2_RightShoulder
					{
						OFFSET 0.000000 0.000000 0.000000
						CHANNELS 3 Zrotation Yrotation Xrotation
						JOINT RightShoulder
						{
							OFFSET -5.580300 6.737503 -0.344400
							CHANNELS 3 Zrotation Yrotation Xrotation
							JOINT RightArm
							{
								OFFSET -10.679335 -0.188484 -2.383900
								CHANNELS 3 Zrotation Yrotation Xrotation
								JOINT RightForeArm
								{
									OFFSET -27.503529 0.000000 0.000000
									CHANNELS 3 Zrotation Yrotation Xrotation
									End Site #name: RightHand
									{
										OFFSET -21.306808 0.000000 0.000000
									}
								}
							}
						}
					}
				}
			}
		}
	}
	JOINT Hips_LeftUpLeg
	{
		OFFSET 0.000000 0.000000 0.000000
		CHANNELS 3 Zrotation Yrotation Xrotation
		JOINT LeftUpLeg
		{
			OFFSET 6.857700 -6.739601 0.312100
			CHANNELS 3 Zrotation Yrotation Xrotation
			JOINT LeftLeg
			{
				OFFSET -0.367590 -34.731552 -4.572400
				CHANNELS 3 Zrotation Yrotation Xrotation
				End Site #name: LeftFoot
				{
					OFFSET 0.367590 -34.656704 -6.067400
				}
			}
		}
	}
	JOINT Hips_RightUpLeg
	{
		OFFSET 0.000000 0.000000 0.000000
		CHANNELS 3 Zrotation Yrotation Xrotation
		JOINT RightUpLeg
		{
			OFFSET -6.876100 -6.733299 0.301000
			CHANNELS 3 Zrotation Yrotation Xrotation
			JOINT RightLeg
			{
				OFFSET 0.347353 -34.795158 -4.515900
				CHANNELS 3 Zrotation Yrotation Xrotation
				End Site #name: RightFoot
				{
					OFFSET -0.347353 -34.589367 -6.070300
				}
			}
		}
	}
}
MOTION
Frames: 18
Frame Time: 0.041667
2.954865 0.778064 -4.557208 175.497946 -5.450800 -178.178426 0.000000 -0.000000 0.000000 -4.755130 -0.611637 4.435741 0.205543 -2.095552 0.905067 0.000000 0.000000 0.000000 0.992131 -1.969931 1.646941 3.135521 -33.014762 -2.507317 -0.143563 -1.710387 -0.622594 1.374920 -6.663197 0.714596 -84.311016 -23.985591 14.288986 3.809752 -17.612298 0.476471 0.182504 -2.636274 0.049585 16.741276 15.673661 4.262772 54.674205 11.611902 8.377648 -0.651427 56.856222 4.066172 0.000000 0.000000 0.000000 -3.224045 15.307463 -5.133349 0.597436 -37.500098 -16.254909 0.000000 0.000000 -0.000000 -3.769365 -54.139227 -10.898196 -13.098250 -6.443671 21.002995 
3.019731 0.841919 -4.669549 175.412099 -4.972181 -178.192142 0.000000 -0.000000 0.000000 -5.017616 -0.561769 4.608647 0.173205 -2.008196 0.910246 0.000000 0.000000 0.000000 0.957564 -1.945048 1.623263 2.819476 -31.907103 -2.755442 -0.163514 -1.667681 -0.604396 1.406093 -7.129272 0.842665 -84.220884 -24.112720 14.323820 3.646282 -18.378668 0.266174 0.167269 -2.584307 0.015166 16.388833 15.655865 4.230221 54.684957 11.464384 8.833689 -1.000599 56.424039 3.657891 0.000000 0.000000 0.000000 -3.276469 15.079250 -5.607095 0.416876 -37.222458 -15.649937 0.000000 0.000000 -0.000000 -3.699969 -53.051359 -10.757246 -12.424686 -5.610695 20.394746 
3.085927 0.906122 -4.777349 175.257769 -4.682011 -178.191221 0.000000 -0.000000 0.000000 -5.283885 -0.431838 4.783045 0.142149 -1.924908 0.905957 0.000000 0.000000 0.000000 0.920810 -1.900608 1.609355 2.514898 -30.561416 -3.127258 -0.177254 -1.607360 -0.575018 1.425695 -7.593943 0.980202 -84.057962 -24.212550 14.333620 3.472363 -19.380683 0.011865 0.157981 -2.515185 -0.008608 16.045038 15.663541 4.205960 54.688200 11.428456 9.233056 -1.346035 56.045827 3.253310 0.000000 0.000000 0.000000 -3.330906 14.802252 -6.069929 0.221625 -36.943627 -15.039808 0.000000 0.000000 -0.000000 -3.695470 -52.122459 -10.580580 -11.802084 -4.764530 19.799491 
3.154178 0.969648 -4.882648 175.038646 -4.522586 -178.167989 0.000000 -0.000000 0.000000 -5.542762 -0.255205 4.967805 0.111499 -1.832930 0.889783 0.000000 0.000000 0.000000 0.880769 -1.844299 1.596820 2.233855 -29.115299 -3.605354 -0.188588 -1.531939 -0.541273 1.419301 -8.015160 1.116597 -83.840558 -24.283209 14.336665 3.303408 -20.658308 -0.274055 0.147873 -2.428773 -0.022768 15.657970 15.737773 4.207313 54.693330 11.413825 9.596288 -1.670840 55.850438 2.788618 0.000000 0.000000 0.000000 -3.387117 14.494426 -6.537956 0.007781 -36.668572 -14.413921 0.000000 0.000000 -0.000000 -3.720115 -51.476640 -10.387519 -11.253665 -3.780124 19.273310 
3.224837 1.031183 -4.986632 174.772200 -4.452937 -178.123241 -0.000000 -0.000000 0.000000 -5.779643 -0.058629 5.140066 0.070477 -1.732421 0.866607 0.000000 0.000000 0.000000 0.834855 -1.785426 1.559573 2.018781 -27.720858 -4.240786 -0.204555 -1.445669 -0.513439 1.466051 -8.217023 1.114890 -83.554594 -24.356045 14.315652 3.179845 -22.116574 -0.507315 0.127491 -2.336751 -0.044032 15.244889 15.876372 4.223688 54.701304 11.399025 9.943486 -1.999456 55.847330 2.383838 0.000000 0.000000 0.000000 -3.450452 14.159661 -7.032891 -0.228101 -36.382482 -13.758485 0.000000 0.000000 -0.000000 -3.730415 -51.228290 -10.223689 -10.700313 -2.561856 18.880922 
3.300904 1.089630 -5.088778 174.445462 -4.537558 -178.060271 -0.000000 -0.000000 0.000000 -6.013455 0.128286 5.304576 0.011353 -1.633568 0.842301 0.000000 0.000000 0.000000 0.782899 -1.722565 1.499286 1.615151 -26.370477 -4.981023 -0.229528 -1.359266 -0.495964 1.506790 -8.375667 1.103496 -83.218630 -24.439318 14.278374 3.156125 -23.731726 -0.621808 0.095128 -2.236964 -0.083131 14.859480 16.079652 4.264803 54.711933 11.366896 10.207694 -2.312637 56.007487 2.072872 0.000000 0.000000 -0.000000 -3.523221 13.807907 -7.532172 -0.502036 -36.144238 -13.056755 0.000000 -0.000000 -0.000000 -3.746932 -51.446674 -10.026713 -10.058962 -1.152851 18.538622 
3.384502 1.143744 -5.188223 174.073455 -5.076470 -177.975484 -0.000000 -0.000000 0.000000 -6.250538 0.296252 5.447166 -0.052582 -1.542412 0.808184 0.000000 0.000000 0.000000 0.732613 -1.663997 1.427844 1.204236 -24.991567 -5.887325 -0.256806 -1.270119 -0.484316 1.538397 -8.490993 1.081858 -82.881892 -24.528793 14.220447 3.173193 -25.487419 -0.738615 0.061493 -2.144384 -0.132231 14.534589 16.345336 4.311156 54.707578 11.347817 10.387608 -2.620332 56.323164 1.770707 0.000000 0.000000 -0.000000 -3.618846 13.420822 -8.042206 -0.815449 -35.975365 -12.269336 0.000000 -0.000000 -0.000000 -3.908086 -52.227661 -9.707236 -9.414970 0.044694 18.127604 
3.474881 1.193878 -5.286692 173.653065 -5.911114 -177.880711 -0.000000 -0.000000 0.000000 -6.503548 0.452777 5.583304 -0.124282 -1.450883 0.766717 0.000000 0.000000 0.000000 0.686234 -1.611739 1.340579 0.718165 -23.434190 -6.985537 -0.287702 -1.179495 -0.480210 1.556091 -8.577569 1.064279 -82.533343 -24.632471 14.207214 3.247985 -27.336662 -0.843536 0.025657 -2.056014 -0.189705 14.253858 16.664725 4.366314 54.707878 11.346118 10.458890 -2.911926 56.838978 1.484770 0.000000 0.000000 -0.000000 -3.788100 12.983326 -8.580595 -1.150978 -35.911340 -11.440280 0.000000 -0.000000 -0.000000 -4.131600 -53.277021 -9.441907 -8.733989 1.088072 17.910798 
3.569177 1.242483 -5.385699 173.251395 -7.019079 -177.751996 -0.000000 -0.000000 0.000000 -6.793834 0.597020 5.735447 -0.210417 -1.355081 0.730016 0.000000 0.000000 0.000000 0.629776 -1.555882 1.251895 0.537850 -21.719229 -8.154654 -0.323048 -1.088311 -0.484749 1.558564 -8.642048 1.086557 -82.229426 -24.700169 14.177081 3.387290 -29.837433 -0.965410 -0.012861 -1.964486 -0.256397 14.022814 17.059956 4.447645 54.700453 11.369194 10.420223 -3.085766 57.592220 1.335186 0.000000 0.000000 -0.000000 -3.995214 12.577924 -9.189370 -1.531771 -35.966365 -10.511105 0.000000 -0.000000 -0.000000 -4.388815 -54.630133 -9.163917 -7.941816 2.111208 17.760266 
3.665787 1.290392 -5.484906 172.941686 -8.004296 -177.616663 -0.000000 -0.000000 0.000000 -7.126302 0.685558 5.989511 -0.315023 -1.277907 0.695288 0.000000 0.000000 0.000000 0.565044 -1.514684 1.153633 0.476069 -19.838122 -9.515672 -0.365555 -0.999670 -0.487242 1.559490 -8.696348 1.113088 -81.942994 -24.747179 14.145607 3.618223 -33.250576 -1.113698 -0.056103 -1.875214 -0.317989 13.879246 17.542910 4.549626 54.669859 11.474853 10.232181 -3.222904 58.773609 1.215687 0.000000 0.000000 -0.000000 -4.205700 12.261359 -9.810476 -1.948910 -36.124599 -9.499118 0.000000 -0.000000 -0.000000 -4.636790 -56.141899 -8.870753 -7.008212 3.225409 17.684031 
3.768256 1.338500 -5.582830 172.713292 -8.833270 -177.484732 -0.000000 -0.000000 0.000000 -7.470915 0.771795 6.199991 -0.415961 -1.235760 0.678112 0.000000 0.000000 0.000000 0.494532 -1.483350 1.072744 0.489864 -17.851155 -10.798724 -0.415994 -0.942329 -0.480585 1.563438 -8.740215 1.139031 -81.647751 -24.807838 14.095812 3.897231 -36.430429 -1.283444 -0.097584 -1.792397 -0.361278 13.764749 18.132111 4.673309 54.603160 11.699065 9.833799 -3.403728 60.449303 1.043958 0.000000 0.000000 -0.000000 -4.408061 12.097521 -10.335835 -2.402859 -36.361068 -8.484835 0.000000 -0.000000 -0.000000 -4.856565 -57.578080 -8.593889 -5.903284 4.461908 17.731131 
3.878713 1.388438 -5.680115 172.531016 -9.421516 -177.369469 -0.000000 -0.000000 0.000000 -7.850005 0.778362 6.415663 -0.512867 -1.210232 0.685893 0.000000 0.000000 0.000000 0.411414 -1.465654 0.995169 0.459144 -15.958493 -11.914063 -0.467044 -0.920262 -0.466243 1.569546 -8.754511 1.159916 -81.307991 -24.903456 14.060466 4.222718 -39.234690 -1.432247 -0.141888 -1.724810 -0.403619 13.663530 18.753504 4.783040 54.504690 11.958440 9.323165 -3.641184 62.426844 0.802704 0.000000 0.000000 -0.000000 -4.597027 12.088702 -10.729393 -2.855487 -36.628230 -7.526674 0.000000 -0.000000 -0.000000 -5.033049 -58.697830 -8.349754 -5.963242 4.914606 17.798537 
3.999340 1.444049 -5.778120 172.372771 -9.719327 -177.294368 -0.000000 -0.000000 0.000000 -8.265081 0.728547 6.628528 -0.611250 -1.201717 0.720612 0.000000 0.000000 0.000000 0.334848 -1.459272 0.935918 0.304184 -14.154105 -12.771111 -0.520219 -0.909326 -0.448879 1.574316 -8.738148 1.173047 -80.939015 -24.996424 14.019787 4.571825 -41.787820 -1.586560 -0.196395 -1.679258 -0.443694 13.532193 19.338118 4.821731 54.451441 12.199197 8.848319 -3.989620 64.918606 0.448205 0.000000 0.000000 -0.000000 -4.761960 12.189302 -10.998183 -3.281245 -36.877098 -6.651016 0.000000 -0.000000 -0.000000 -5.232064 -59.415426 -8.106575 -6.185521 5.143359 17.786890 
4.130683 1.506258 -5.879198 172.237729 -9.713606 -177.275152 -0.000000 -0.000000 0.000000 -8.680444 0.573498 6.836734 -0.715985 -1.213422 0.756349 0.000000 0.000000 0.000000 0.245978 -1.460880 0.906853 0.175066 -12.500620 -13.374404 -0.574601 -0.908453 -0.437472 1.571769 -8.683246 1.178341 -80.535770 -25.082406 14.028393 4.927510 -44.050418 -1.738811 -0.263967 -1.653779 -0.489168 13.408204 19.832114 4.812677 54.483774 12.324953 8.443388 -4.475102 67.590480 -0.024663 0.000000 0.000000 -0.000000 -4.899122 12.368534 -11.119949 -3.709079 -37.005790 -5.886200 0.000000 -0.000000 -0.000000 -5.379164 -59.667697 -8.006225 -6.392420 5.210244 17.696302 
4.273366 1.576672 -5.985393 172.095693 -9.357898 -177.312807 -0.000000 -0.000000 0.000000 -9.032864 0.485055 6.984625 -0.816857 -1.254010 0.807912 0.000000 0.000000 0.000000 0.149101 -1.483446 0.895318 0.086568 -10.458176 -14.202798 -0.629377 -0.921727 -0.428399 1.558097 -8.594556 1.174500 -80.078262 -25.190882 14.060432 5.263628 -45.995501 -1.888852 -0.342503 -1.659459 -0.526848 13.317930 20.237092 4.749470 54.584452 12.486170 7.940212 -5.052492 70.241194 -0.599789 0.000000 0.000000 -0.000000 -4.971143 12.618770 -11.055631 -4.049609 -37.122875 -5.328770 0.000000 -0.000000 -0.000000 -5.189859 -59.229504 -8.336815 -6.553879 5.223410 17.522650 
4.432621 1.678248 -6.095797 171.954299 -8.731270 -177.408186 -0.000000 -0.000000 0.000000 -9.371222 0.355852 7.137328 -0.922387 -1.317888 0.843536 0.000000 0.000000 0.000000 0.036578 -1.513296 0.933829 0.024956 -8.506391 -14.904654 -0.687686 -0.949171 -0.412780 1.527382 -8.456137 1.162719 -79.579693 -25.333306 14.109594 5.575804 -47.708000 -2.051420 -0.434464 -1.700326 -0.557920 13.255086 20.565245 4.596272 54.763047 12.719750 7.513458 -5.789495 72.863393 -1.356910 0.000000 0.000000 -0.000000 -4.985340 12.916053 -10.868753 -4.316641 -37.244878 -4.945223 0.000000 0.000000 -0.000000 -4.519765 -58.162164 -9.144412 -6.658191 5.112224 17.432588 
4.606066 1.814326 -6.211629 171.869354 -7.994654 -177.555519 -0.000000 -0.000000 0.000000 -9.684171 0.172877 7.335475 -1.035420 -1.399813 0.890320 0.000000 0.000000 0.000000 -0.089551 -1.550254 0.964977 0.010113 -6.989710 -15.362335 -0.748955 -0.989625 -0.390008 1.481344 -8.278252 1.143667 -79.042892 -25.489255 14.201305 5.858796 -49.276314 -2.225661 -0.539872 -1.773661 -0.579924 13.211667 20.870682 4.331415 55.023125 13.032249 7.270672 -6.685482 75.354236 -2.297951 0.000000 0.000000 -0.000000 -4.952550 13.252085 -10.523807 -4.493223 -37.420592 -4.810825 -0.000000 0.000000 -0.000000 -3.671465 -56.520181 -10.256596 -6.657530 4.860875 17.582350 
4.794547 1.987294 -6.335700 171.865464 -7.475280 -177.751049 -0.000000 -0.000000 0.000000 -9.976056 -0.038990 7.562308 -1.151797 -1.496568 0.935314 0.000000 0.000000 0.000000 -0.219774 -1.590491 0.996108 0.051547 -5.831590 -15.636733 -0.814284 -1.037759 -0.368798 1.433574 -8.077692 1.119030 -78.455171 -25.671004 14.315808 6.124684 -50.793572 -2.437024 -0.663275 -1.867374 -0.590192 13.199693 21.177227 3.949325 55.306608 13.514677 7.055441 -7.599055 77.454902 -3.276019 0.000000 0.000000 -0.000000 -4.863445 13.618862 -9.970074 -4.589018 -37.709954 -4.931266 -0.000000 0.000000 -0.000000 -3.074430 -54.167519 -11.426731 -6.652235 4.472128 17.980648 
